<svg width="43" height="41" viewBox="0 0 43 41" fill="none" xmlns="http://www.w3.org/2000/svg">
<path d="M37.5186 39.4997L21.25 31.4759L4.98145 39.4997V4.73837H37.5223V39.4997H37.5186ZM21.25 30.2496L36.4213 37.7322V5.83939H6.07878V37.7358L21.25 30.2496Z" fill="#3E4095" stroke="#3E4095" stroke-miterlimit="10"/>
<path d="M37.0951 30.2423L36.8484 29.1707C39.2346 28.6221 40.9027 26.5231 40.9027 24.0707V6.83363C40.9027 3.94667 38.5533 1.60102 35.6701 1.60102H6.83363C3.94667 1.59734 1.59734 3.94667 1.59734 6.83363V24.0744C1.59734 26.5268 3.26544 28.6257 5.6516 29.1744L5.40488 30.246C2.51792 29.5758 0.5 27.0386 0.5 24.0707V6.83363C0.5 3.34277 3.33909 0.5 6.83363 0.5H35.6664C39.1572 0.5 42 3.33909 42 6.83363V24.0744C42 27.0386 39.9821 29.5758 37.0951 30.2423Z" fill="#3E4095" stroke="#3E4095" stroke-miterlimit="10"/>
</svg>
