<svg width="45" height="38" viewBox="0 0 45 38" fill="none" xmlns="http://www.w3.org/2000/svg">
<path d="M40.4744 23.8169C42.4421 23.1605 41.359 17.71 38.0551 11.643C34.7512 5.576 30.4778 1.18992 28.5101 1.8464C26.5424 2.50288 27.6256 7.95334 30.9294 14.0203C34.2333 20.0873 38.5067 24.4734 40.4744 23.8169Z" stroke="#B53033" stroke-miterlimit="10"/>
<path d="M40.4647 24.8953C40.0441 25.0366 39.5568 25.0314 39.0227 24.9005C36.2724 24.2096 32.2803 20.0744 29.2897 14.5731C26.6461 9.70508 25.5246 5.13544 26.1855 2.73809C26.1855 2.72762 26.1922 2.72238 26.1922 2.71191C26.1988 2.69621 26.2055 2.67527 26.2055 2.65957C26.2055 2.65434 26.2055 2.65434 26.2055 2.65434C26.4392 1.86394 26.8797 1.31956 27.534 1.10495C30.1375 0.236042 35.1375 4.85802 38.709 11.4272C42.2804 17.9964 43.0682 24.0264 40.4647 24.8953Z" stroke="#B53033" stroke-miterlimit="10"/>
<path d="M39 24.5406C38.9935 24.5406 38.987 24.5355 38.9804 24.5355C30.9486 22.6754 24.1684 22.5741 18.9203 23.1214C14.6175 23.5725 11.3383 24.4646 9.23904 25.1893C9.22601 25.1944 9.21297 25.1995 9.19993 25.2045C8.56755 25.4225 8.03948 25.6252 7.62876 25.7975C6.79428 26.1422 5.77074 26.0408 5.07968 25.5391C4.66896 25.24 4.33647 24.9004 4.06918 24.5457C3.61282 23.9375 3.33901 23.2836 3.18906 22.6704C3.0326 22.0469 3 21.4692 3 21.0383C3.00652 20.6025 3.32597 20.2122 3.82144 20.0196C22.9428 12.7262 26.1503 4.00861 26.4437 3.08109C26.4437 3.07096 26.4502 3.06589 26.4502 3.05575C26.4567 3.03041 26.4632 3.01521 26.4632 3.00507C26.4632 3 26.4632 3 26.4632 3" stroke="#B53033" stroke-miterlimit="10"/>
<path d="M18.7023 23C19.3795 24.4945 17.9991 26.226 17.9991 26.226C20.3823 27.0144 19.2298 28.8438 19.2298 28.8438C20.7665 29.3901 21.307 31.8225 21.307 31.8225C22.1535 31.8225 23 33.7704 23 33.7704C17.5433 37.2386 14.3916 36.9964 14.3916 36.9964C11.3442 35.5122 9.5014 27.5658 9 25.118" stroke="#B53033" stroke-miterlimit="10"/>
<path d="M3.08139 23L1.30496 23.5057C1.19013 23.5384 1.10232 23.6036 1.0753 23.6811C0.967233 23.9707 0.825388 24.6966 1.83856 24.978C1.93988 25.0066 2.06146 25.0066 2.16953 24.9821L4 24.509" stroke="#B53033" stroke-miterlimit="10"/>
<path d="M30 11.6706L31.5923 11.0841C31.9028 10.972 32.2529 10.972 32.5634 11.0841C33.5798 11.4513 35.6011 12.5835 34.8276 15.5924C34.7316 15.9596 34.4493 16.2707 34.0597 16.4135L32.4957 17" stroke="#B53033" stroke-miterlimit="10"/>
</svg>
