<svg width="21" height="22" viewBox="0 0 21 22" fill="none" xmlns="http://www.w3.org/2000/svg">
<path d="M10.5 7.7C9.66457 7.7 8.86335 8.04768 8.27261 8.66655C7.68187 9.28542 7.35 10.1248 7.35 11C7.35 11.8752 7.68187 12.7146 8.27261 13.3335C8.86335 13.9523 9.66457 14.3 10.5 14.3C11.3354 14.3 12.1366 13.9523 12.7274 13.3335C13.3181 12.7146 13.65 11.8752 13.65 11C13.65 10.1248 13.3181 9.28542 12.7274 8.66655C12.1366 8.04768 11.3354 7.7 10.5 7.7ZM10.5 5.5C11.8924 5.5 13.2277 6.07946 14.2123 7.11091C15.1969 8.14236 15.75 9.54131 15.75 11C15.75 12.4587 15.1969 13.8576 14.2123 14.8891C13.2277 15.9205 11.8924 16.5 10.5 16.5C9.10761 16.5 7.77225 15.9205 6.78769 14.8891C5.80312 13.8576 5.25 12.4587 5.25 11C5.25 9.54131 5.80312 8.14236 6.78769 7.11091C7.77225 6.07946 9.10761 5.5 10.5 5.5ZM17.325 5.225C17.325 5.58967 17.1867 5.93941 16.9406 6.19727C16.6944 6.45513 16.3606 6.6 16.0125 6.6C15.6644 6.6 15.3306 6.45513 15.0844 6.19727C14.8383 5.93941 14.7 5.58967 14.7 5.225C14.7 4.86033 14.8383 4.51059 15.0844 4.25273C15.3306 3.99487 15.6644 3.85 16.0125 3.85C16.3606 3.85 16.6944 3.99487 16.9406 4.25273C17.1867 4.51059 17.325 4.86033 17.325 5.225ZM10.5 2.2C7.9023 2.2 7.4781 2.2077 6.26955 2.2638C5.44635 2.3045 4.89405 2.42 4.38165 2.629C3.92595 2.8138 3.5973 3.0349 3.24765 3.4023C2.91901 3.73494 2.66632 4.14104 2.50845 4.5903C2.30895 5.1293 2.1987 5.7068 2.1609 6.5681C2.1063 7.7825 2.1 8.2071 2.1 11C2.1 13.7214 2.10735 14.1658 2.1609 15.4319C2.19975 16.2932 2.31 16.8729 2.50845 17.4086C2.68695 17.8871 2.89695 18.2314 3.24555 18.5966C3.5994 18.9662 3.92805 19.1873 4.37955 19.3699C4.89825 19.58 5.45055 19.6966 6.26955 19.7362C7.42875 19.7934 7.83405 19.8 10.5 19.8C13.0977 19.8 13.5219 19.7923 14.7304 19.7362C15.5515 19.6955 16.1049 19.58 16.6173 19.3721C17.0719 19.1862 17.4027 18.9651 17.7513 18.5999C18.1052 18.2292 18.3162 17.8849 18.4905 17.4119C18.69 16.8696 18.8013 16.2899 18.8391 15.4319C18.8937 14.2175 18.9 13.7929 18.9 11C18.9 8.2786 18.8926 7.8342 18.8391 6.5681C18.8002 5.7079 18.69 5.1271 18.4905 4.5903C18.3323 4.1415 18.08 3.73556 17.7523 3.4023C17.435 3.05783 17.0473 2.79308 16.6183 2.6279C16.1038 2.4189 15.5515 2.3034 14.7304 2.2638C13.5712 2.2066 13.1659 2.2 10.5 2.2ZM10.5 0C13.3528 0 13.7088 0.0109999 14.8281 0.0659999C15.9463 0.121 16.7076 0.3047 17.3775 0.5775C18.0705 0.8569 18.6543 1.2353 19.2381 1.8458C19.772 2.39569 20.1852 3.06085 20.4487 3.795C20.7081 4.4957 20.8845 5.2943 20.937 6.4658C20.9863 7.6384 21 8.0113 21 11C21 13.9887 20.9895 14.3616 20.937 15.5342C20.8845 16.7057 20.7081 17.5032 20.4487 18.205C20.1859 18.9396 19.7727 19.6049 19.2381 20.1542C18.7131 20.7134 18.0782 21.1461 17.3775 21.4225C16.7086 21.6942 15.9463 21.879 14.8281 21.934C13.7088 21.9857 13.3528 22 10.5 22C7.64715 22 7.2912 21.989 6.1719 21.934C5.05365 21.879 4.2924 21.6942 3.6225 21.4225C2.92144 21.1469 2.2864 20.714 1.7619 20.1542C1.22788 19.6044 0.814728 18.9392 0.55125 18.205C0.29085 17.5043 0.1155 16.7057 0.0629999 15.5342C0.0136499 14.3616 0 13.9887 0 11C0 8.0113 0.0104999 7.6384 0.0629999 6.4658C0.1155 5.2932 0.29085 4.4968 0.55125 3.795C0.813998 3.0604 1.22724 2.39505 1.7619 1.8458C2.28655 1.28615 2.92155 0.853302 3.6225 0.5775C4.2924 0.3047 5.0526 0.121 6.1719 0.0659999C7.2912 0.0142999 7.64715 0 10.5 0Z" fill="black"/>
</svg>
