<svg width="49" height="31" viewBox="0 0 49 31" fill="none" xmlns="http://www.w3.org/2000/svg">
<path d="M22.3501 14.0428C21.9608 14.0428 21.5915 13.8898 21.3187 13.6136L18.2314 10.5263L15.1607 13.597C14.5918 14.1659 13.6636 14.1659 13.0947 13.597L10.6328 11.1351L8.17085 13.597C7.60195 14.1659 6.67375 14.1659 6.10485 13.597L3.89247 11.3846L2.49517 12.7819C2.07598 13.2011 1.45053 13.3242 0.904915 13.098C0.352651 12.8718 0 12.3428 0 11.7506V0H46.999C47.9938 0 48.8022 0.808435 48.8022 1.80318V11.7972C48.8022 12.3894 48.4496 12.9183 47.9006 13.1479C47.3517 13.3741 46.7262 13.251 46.307 12.8318L43.2862 9.81101L39.8928 13.2078C39.3239 13.7767 38.3957 13.7767 37.8268 13.2078L34.8658 10.2468L31.5922 13.5205C31.0233 14.0894 30.0951 14.0894 29.5262 13.5205L26.502 10.4964L23.3847 13.6136C23.1086 13.8898 22.7393 14.0428 22.3501 14.0428ZM18.2314 8.77967C18.6206 8.77967 18.9899 8.93271 19.2627 9.20884L22.3501 12.2962L25.4674 9.1789C25.7435 8.90277 26.1095 8.74973 26.4987 8.74973C26.888 8.74973 27.2572 8.90277 27.53 9.1789L30.5542 12.203L33.8279 8.92938C34.3968 8.36049 35.325 8.36049 35.8939 8.92938L38.8548 11.8903L42.2549 8.49023C42.8238 7.92133 43.752 7.92133 44.3209 8.49023L47.1388 11.3081V1.80318C47.1388 1.72666 47.0755 1.66345 46.999 1.66345H1.66345V11.2615L2.8578 10.0672C3.4267 9.49828 4.3549 9.49828 4.9238 10.0672L7.13619 12.2796L9.59809 9.81766C9.87422 9.54153 10.2402 9.38849 10.6294 9.38849C11.0187 9.38849 11.388 9.54153 11.6608 9.81766L14.1227 12.2796L17.1934 9.20884C17.4728 8.93271 17.8388 8.77967 18.2314 8.77967Z" fill="#B53033"/>
<path d="M43.9847 30.9999H4.81719C3.31676 30.9999 2.09912 29.779 2.09912 28.2819V11.1683H3.76257V28.2785C3.76257 28.8608 4.23499 29.3332 4.81719 29.3332H43.9847C44.5669 29.3332 45.0393 28.8608 45.0393 28.2785V11.2149H46.7028V28.2785C46.7061 29.779 45.4851 30.9999 43.9847 30.9999Z" fill="#B53033"/>
</svg>
