<svg width="45" height="33" viewBox="0 0 45 33" fill="none" xmlns="http://www.w3.org/2000/svg">
<path d="M38.7589 33C38.6407 33 38.5199 32.9893 38.3992 32.9704L13.9262 28.9235C12.7263 28.7243 11.9102 27.5861 12.1089 26.3833L16.1461 1.8513C16.3448 0.648513 17.4829 -0.166801 18.6801 0.0296279L43.1531 4.07659C44.353 4.27571 45.169 5.41392 44.9704 6.61671L40.9332 31.1488C40.756 32.2305 39.8192 33 38.7589 33ZM38.6166 31.6439C39.0863 31.7219 39.5319 31.4017 39.6098 30.9308L43.647 6.39876C43.7249 5.92787 43.4054 5.48119 42.9357 5.40316L18.4627 1.35619C17.9929 1.27816 17.5473 1.59837 17.4695 2.06926L13.4349 26.6013C13.3571 27.0722 13.6765 27.5189 14.1463 27.5969L38.6166 31.6439Z" fill="#B53033"/>
<path d="M27.9787 11.7292L8.53878 7.80599C8.39382 7.77639 8.29987 7.63378 8.3294 7.48847L8.48778 6.69738C8.5173 6.55207 8.65957 6.4579 8.80453 6.4875L28.2444 10.4107C28.3894 10.4403 28.4833 10.5829 28.4538 10.7282L28.2954 11.5193C28.2659 11.6646 28.1236 11.7588 27.9787 11.7292Z" fill="#B53033"/>
<path d="M23.767 16.4381L4.32711 12.5149C4.18216 12.4853 4.0882 12.3427 4.11773 12.1974L4.27611 11.4063C4.30563 11.261 4.4479 11.1668 4.59286 11.1964L24.0327 15.1196C24.1777 15.1492 24.2716 15.2918 24.2421 15.4371L24.0837 16.2282C24.0542 16.3735 23.9146 16.4677 23.767 16.4381Z" fill="#B53033"/>
<path d="M19.6547 21.6475L0.214804 17.7216C0.0698504 17.692 -0.024101 17.5494 0.00542661 17.4041L0.163802 16.613C0.193329 16.4677 0.335598 16.3735 0.480552 16.4031L19.9204 20.3263C20.0654 20.3559 20.1593 20.4985 20.1298 20.6438L19.9714 21.4349C19.9419 21.5829 19.8023 21.6771 19.6547 21.6475Z" fill="#B53033"/>
</svg>
