<svg width="45" height="44" viewBox="0 0 45 44" fill="none" xmlns="http://www.w3.org/2000/svg">
<path d="M22.0018 44C9.86798 44 0 34.132 0 22.0018C0 9.86798 9.86798 0 22.0018 0C34.132 0 44.0037 9.86798 44.0037 22.0018C44 34.132 34.132 44 22.0018 44ZM22.0018 1.84517C10.8865 1.84517 1.84517 10.8865 1.84517 22.0018C1.84517 33.1172 10.8865 42.1585 22.0018 42.1585C33.1172 42.1585 42.1585 33.1172 42.1585 22.0018C42.1548 10.8865 33.1135 1.84517 22.0018 1.84517Z" fill="#3E4095"/>
<path d="M31.405 34.4457H12.599C10.9198 34.4457 9.55811 33.0802 9.55811 31.4048V12.5988C9.55811 10.9197 10.9235 9.55798 12.599 9.55798H31.405C33.0841 9.55798 34.4458 10.9234 34.4458 12.5988V31.4048C34.4458 33.0802 33.0804 34.4457 31.405 34.4457ZM12.599 11.3995C11.9384 11.3995 11.4033 11.9383 11.4033 12.5951V31.4048C11.4033 32.0654 11.9421 32.6005 12.599 32.6005H31.405C32.0655 32.6005 32.6006 32.0617 32.6006 31.4048V12.5988C32.6006 11.9383 32.0618 11.4032 31.405 11.4032H12.599V11.3995Z" fill="#3E4095"/>
</svg>
