<svg width="23" height="20" viewBox="0 0 23 20" fill="none" xmlns="http://www.w3.org/2000/svg">
<path d="M15.9437 2.4044C15.0723 2.40425 14.2356 2.76257 13.6137 3.40227C12.9918 4.04196 12.6345 4.91189 12.6185 5.82486L12.5864 7.71711C12.5845 7.81871 12.5622 7.91874 12.5208 8.01065C12.4794 8.10256 12.42 8.18426 12.3464 8.2504C12.2727 8.31654 12.1866 8.36562 12.0936 8.39443C12.0006 8.42324 11.9028 8.43111 11.8067 8.41755L10.0169 8.16284C7.6617 7.82644 5.40516 6.68989 3.24034 4.80005C2.55466 8.77677 3.89391 11.5316 7.11935 13.657L9.12249 14.9761C9.21767 15.0388 9.29674 15.125 9.35278 15.2271C9.40883 15.3292 9.44015 15.4441 9.44399 15.5618C9.44784 15.6795 9.4241 15.7964 9.37485 15.9023C9.3256 16.0082 9.25234 16.0998 9.16147 16.1692L7.33606 17.5664C8.42191 17.6373 9.45271 17.5868 10.3081 17.409C15.7178 16.2773 19.3148 12.0122 19.3148 4.97666C19.3148 4.40237 18.1544 2.4044 15.9437 2.4044ZM10.3253 5.78041C10.3453 4.6223 10.6909 3.4961 11.3189 2.54283C11.9469 1.58956 12.8293 0.851579 13.8556 0.421284C14.882 -0.00900995 16.0067 -0.112495 17.0889 0.123787C18.1711 0.360069 19.1628 0.925618 19.9397 1.74962C20.7549 1.74362 21.4486 1.95987 23 0.974702C22.6159 2.94504 22.4267 3.80046 21.608 4.97666C21.608 14.158 16.2223 18.6225 10.7576 19.765C7.01042 20.5484 1.56169 19.2616 0 17.5532C0.795753 17.4883 4.02921 17.1243 5.8982 15.691C4.31702 14.5989 -1.97677 10.7183 2.15908 0.285082C4.1003 2.6603 6.06905 4.27743 8.06416 5.13524C9.39194 5.70592 9.71758 5.69391 10.3264 5.78161L10.3253 5.78041Z" fill="black"/>
</svg>
