<svg width="26" height="22" viewBox="0 0 26 22" fill="none" xmlns="http://www.w3.org/2000/svg">
<path d="M22.8878 4.11812C22.789 3.70837 22.5082 3.399 22.1871 3.30412C21.619 3.135 18.85 2.75 13 2.75C7.15 2.75 4.3836 3.135 3.8103 3.30412C3.4931 3.39762 3.2123 3.707 3.1122 4.11812C2.9705 4.70112 2.6 7.1445 2.6 11C2.6 14.8555 2.9705 17.2975 3.1122 17.8832C3.211 18.2916 3.4918 18.601 3.8116 18.6945C4.3836 18.865 7.15 19.25 13 19.25C18.85 19.25 21.6177 18.865 22.1897 18.6959C22.5069 18.6024 22.7877 18.293 22.8878 17.8819C23.0295 17.2989 23.4 14.85 23.4 11C23.4 7.15 23.0295 4.7025 22.8878 4.11812ZM25.4059 3.43475C26 5.885 26 11 26 11C26 11 26 16.115 25.4059 18.5653C25.0757 19.9196 24.1098 20.9853 22.8865 21.3455C20.6648 22 13 22 13 22C13 22 5.3391 22 3.1135 21.3455C1.885 20.9797 0.9204 19.9155 0.5941 18.5653C0 16.115 0 11 0 11C0 11 0 5.885 0.5941 3.43475C0.9243 2.08038 1.8902 1.01475 3.1135 0.6545C5.3391 -2.73129e-07 13 0 13 0C13 0 20.6648 -2.73129e-07 22.8865 0.6545C24.115 1.02025 25.0796 2.0845 25.4059 3.43475ZM10.4 15.8125V6.1875L18.2 11L10.4 15.8125Z" fill="black"/>
</svg>
